<svg width="130" height="128" viewBox="0 0 130 128" fill="none" xmlns="http://www.w3.org/2000/svg">
<ellipse cx="64.855" cy="64" rx="64.855" ry="64" fill="#7628ED"/>
<path d="M91 47.6725C89.1584 48.4536 87.2109 48.97 85.218 49.2055C87.3205 47.9774 88.8961 46.0455 89.6525 43.768C87.6767 44.9179 85.5139 45.7281 83.258 46.1634C81.7501 44.5646 79.7422 43.5004 77.549 43.1376C75.3559 42.7748 73.1016 43.134 71.1398 44.1589C69.1779 45.1837 67.6195 46.8162 66.7088 48.8003C65.7982 50.7844 65.5869 53.0079 66.108 55.1221C62.1131 54.9246 58.2054 53.9076 54.6387 52.1372C51.072 50.3667 47.9262 47.8825 45.4055 44.8459C44.5214 46.3554 44.0568 48.0649 44.058 49.8044C44.0549 51.4198 44.4603 53.0109 45.2383 54.436C46.0163 55.8612 47.1426 57.0761 48.517 57.9727C46.9195 57.9302 45.3562 57.5111 43.96 56.751V56.8708C43.972 59.1342 44.7832 61.3241 46.2564 63.07C47.7297 64.8159 49.7745 66.0108 52.045 66.4524C51.171 66.7124 50.2635 66.8496 49.35 66.8596C48.7176 66.8524 48.0868 66.7963 47.4635 66.6919C48.1101 68.6389 49.3613 70.3405 51.0431 71.5597C52.7249 72.779 54.7537 73.4554 56.847 73.4948C53.3121 76.2143 48.9479 77.6984 44.45 77.7107C43.6311 77.7134 42.8128 77.6654 42 77.567C46.5923 80.4661 51.9441 82.005 57.4105 81.9985C61.1827 82.0368 64.925 81.3398 68.4186 79.9482C71.9123 78.5567 75.0873 76.4984 77.7582 73.8937C80.4292 71.2889 82.5425 68.19 83.9748 64.7778C85.407 61.3656 86.1295 57.7085 86.1 54.0203C86.1 53.613 86.1 53.1819 86.1 52.7507C88.0225 51.3489 89.6806 49.6305 91 47.6725Z" fill="white"/>
</svg>
