<svg width="130" height="128" viewBox="0 0 130 128" fill="none" xmlns="http://www.w3.org/2000/svg">
<ellipse cx="64.855" cy="64" rx="64.855" ry="64" fill="#7628ED"/>
<path d="M77.4598 48.7401C76.9061 48.7401 76.3647 48.9043 75.9042 49.212C75.4438 49.5196 75.0849 49.9569 74.873 50.4686C74.6611 50.9802 74.6056 51.5432 74.7136 52.0863C74.8217 52.6295 75.0884 53.1284 75.4799 53.52C75.8715 53.9116 76.3704 54.1782 76.9136 54.2863C77.4567 54.3943 78.0197 54.3389 78.5314 54.1269C79.043 53.915 79.4803 53.5561 79.788 53.0957C80.0956 52.6352 80.2598 52.0939 80.2598 51.5401C80.2598 50.7975 79.9648 50.0853 79.4397 49.5602C78.9146 49.0351 78.2024 48.7401 77.4598 48.7401ZM88.1932 54.3867C88.1478 52.4508 87.7852 50.5354 87.1198 48.7167C86.5265 47.1607 85.6031 45.7517 84.4132 44.5867C83.2578 43.3907 81.8455 42.4732 80.2832 41.9034C78.4694 41.2178 76.5518 40.8469 74.6132 40.8067C72.1398 40.6667 71.3465 40.6667 64.9998 40.6667C58.6532 40.6667 57.8598 40.6667 55.3865 40.8067C53.4479 40.8469 51.5303 41.2178 49.7165 41.9034C48.1571 42.4789 46.746 43.3957 45.5865 44.5867C44.3905 45.7422 43.4729 47.1544 42.9032 48.7167C42.2175 50.5305 41.8467 52.4481 41.8065 54.3867C41.6665 56.8601 41.6665 57.6534 41.6665 64.0001C41.6665 70.3468 41.6665 71.1401 41.8065 73.6134C41.8467 75.5521 42.2175 77.4696 42.9032 79.2834C43.4729 80.8457 44.3905 82.258 45.5865 83.4134C46.746 84.6044 48.1571 85.5212 49.7165 86.0967C51.5303 86.7824 53.4479 87.1533 55.3865 87.1934C57.8598 87.3334 58.6532 87.3334 64.9998 87.3334C71.3465 87.3334 72.1398 87.3334 74.6132 87.1934C76.5518 87.1533 78.4694 86.7824 80.2832 86.0967C81.8455 85.527 83.2578 84.6094 84.4132 83.4134C85.6084 82.2528 86.5326 80.8425 87.1198 79.2834C87.7852 77.4648 88.1478 75.5494 88.1932 73.6134C88.1932 71.1401 88.3332 70.3468 88.3332 64.0001C88.3332 57.6534 88.3332 56.8601 88.1932 54.3867ZM83.9932 73.3334C83.9762 74.8145 83.7079 76.2821 83.1998 77.6734C82.8273 78.6889 82.2289 79.6064 81.4498 80.3568C80.693 81.1279 79.7774 81.7251 78.7665 82.1068C77.3751 82.6148 75.9076 82.8831 74.4265 82.9001C72.0932 83.0168 71.2298 83.0401 65.0932 83.0401C58.9565 83.0401 58.0932 83.0401 55.7598 82.9001C54.2219 82.9289 52.6906 82.6921 51.2332 82.2001C50.2667 81.7989 49.393 81.2033 48.6665 80.4501C47.892 79.7005 47.3011 78.7822 46.9398 77.7667C46.3702 76.3554 46.0542 74.8546 46.0065 73.3334C46.0065 71.0001 45.8665 70.1368 45.8665 64.0001C45.8665 57.8634 45.8665 57.0001 46.0065 54.6667C46.017 53.1525 46.2934 51.652 46.8232 50.2334C47.2339 49.2485 47.8645 48.3706 48.6665 47.6667C49.3754 46.8645 50.2515 46.2273 51.2332 45.8001C52.6555 45.2868 54.1545 45.0186 55.6665 45.0067C57.9998 45.0067 58.8632 44.8667 64.9998 44.8667C71.1365 44.8667 71.9998 44.8667 74.3332 45.0067C75.8143 45.0237 77.2818 45.292 78.6732 45.8001C79.7335 46.1936 80.6852 46.8334 81.4498 47.6667C82.2145 48.3835 82.8119 49.2598 83.1998 50.2334C83.7184 51.6543 83.9868 53.1542 83.9932 54.6667C84.1098 57.0001 84.1332 57.8634 84.1332 64.0001C84.1332 70.1368 84.1098 71.0001 83.9932 73.3334ZM64.9998 52.0301C62.6334 52.0347 60.3214 52.7406 58.356 54.0587C56.3906 55.3768 54.8601 57.2479 53.9577 59.4355C53.0552 61.6231 52.8215 64.0292 53.286 66.3496C53.7505 68.67 54.8924 70.8007 56.5673 72.4724C58.2423 74.1441 60.3752 75.2818 62.6965 75.7418C65.0178 76.2017 67.4234 75.9633 69.6093 75.0567C71.7951 74.15 73.6632 72.6158 74.9775 70.6478C76.2917 68.6799 76.9932 66.3665 76.9932 64.0001C76.9963 62.4253 76.688 60.8655 76.0861 59.4103C75.4841 57.9551 74.6005 56.6333 73.4859 55.5209C72.3713 54.4084 71.0477 53.5273 69.5914 52.9283C68.135 52.3292 66.5746 52.0239 64.9998 52.0301ZM64.9998 71.7701C63.4631 71.7701 61.9608 71.3144 60.6831 70.4606C59.4053 69.6068 58.4094 68.3933 57.8213 66.9735C57.2332 65.5538 57.0793 63.9915 57.3791 62.4842C57.6789 60.977 58.419 59.5925 59.5056 58.5059C60.5923 57.4192 61.9768 56.6792 63.484 56.3794C64.9912 56.0796 66.5535 56.2334 67.9733 56.8215C69.3931 57.4096 70.6066 58.4055 71.4604 59.6833C72.3141 60.9611 72.7698 62.4633 72.7698 64.0001C72.7698 65.0205 72.5689 66.0308 72.1784 66.9735C71.7879 67.9162 71.2156 68.7728 70.4941 69.4943C69.7725 70.2158 68.916 70.7881 67.9733 71.1786C67.0306 71.5691 66.0202 71.7701 64.9998 71.7701Z" fill="white"/>
</svg>
