<svg width="130" height="128" viewBox="0 0 130 128" fill="none" xmlns="http://www.w3.org/2000/svg">
<ellipse cx="64.855" cy="64" rx="64.855" ry="64" fill="#7628ED"/>
<path d="M84.5246 40.0003H44.4754C44.0252 39.994 43.5781 40.0777 43.1598 40.2468C42.7415 40.4158 42.3601 40.6669 42.0374 40.9856C41.7147 41.3042 41.457 41.6844 41.279 42.1042C41.101 42.524 41.0062 42.9753 41 43.4323V84.5677C41.0062 85.0247 41.101 85.476 41.279 85.8958C41.457 86.3156 41.7147 86.6957 42.0374 87.0144C42.3601 87.3331 42.7415 87.5842 43.1598 87.7532C43.5781 87.9223 44.0252 88.006 44.4754 87.9997H84.5246C84.9748 88.006 85.4219 87.9223 85.8402 87.7532C86.2585 87.5842 86.6399 87.3331 86.9626 87.0144C87.2853 86.6957 87.543 86.3156 87.721 85.8958C87.899 85.476 87.9938 85.0247 88 84.5677V43.4323C87.9938 42.9753 87.899 42.524 87.721 42.1042C87.543 41.6844 87.2853 41.3042 86.9626 40.9856C86.6399 40.6669 86.2585 40.4158 85.8402 40.2468C85.4219 40.0777 84.9748 39.994 84.5246 40.0003ZM55.256 80.1758H48.1635V58.5761H55.256V80.1758ZM51.7098 55.5521C50.7316 55.5521 49.7935 55.1577 49.1019 54.4555C48.4102 53.7534 48.0216 52.8011 48.0216 51.8082C48.0216 50.8152 48.4102 49.8629 49.1019 49.1608C49.7935 48.4587 50.7316 48.0642 51.7098 48.0642C52.2292 48.0044 52.7551 48.0567 53.2533 48.2175C53.7514 48.3784 54.2104 48.6443 54.6003 48.9977C54.9902 49.3512 55.3022 49.7842 55.5158 50.2685C55.7294 50.7529 55.8398 51.2775 55.8398 51.8082C55.8398 52.3388 55.7294 52.8635 55.5158 53.3478C55.3022 53.8321 54.9902 54.2652 54.6003 54.6186C54.2104 54.9721 53.7514 55.2379 53.2533 55.3988C52.7551 55.5597 52.2292 55.6119 51.7098 55.5521ZM80.8365 80.1758H73.744V68.5839C73.744 65.68 72.7274 63.784 70.1504 63.784C69.3529 63.7899 68.5763 64.0439 67.9253 64.5116C67.2743 64.9793 66.7802 65.6384 66.5096 66.4C66.3245 66.9641 66.2444 67.5581 66.2731 68.1519V80.1518H59.1806C59.1806 80.1518 59.1806 60.52 59.1806 58.5521H66.2731V61.6C66.9175 60.4651 67.8546 59.5301 68.9835 58.8958C70.1125 58.2614 71.3906 57.9517 72.6801 58.0001C77.4084 58.0001 80.8365 61.096 80.8365 67.7439V80.1758Z" fill="white"/>
</svg>
