<svg width="130" height="128" viewBox="0 0 130 128" fill="none" xmlns="http://www.w3.org/2000/svg">
<ellipse cx="64.855" cy="64" rx="64.855" ry="64" fill="#7628ED"/>
<path d="M95.1591 39H33.8636C32.2955 39 31 40.2955 31 41.8636V87.1364C31 88.7045 32.2955 90 33.8636 90H95.1591C96.7273 90 98.0227 88.7045 98.0227 87.1364V41.8636C98.0227 40.2955 96.7273 39 95.1591 39ZM33.8636 41.7273H95.1591C95.2273 41.7273 95.2955 41.7955 95.2955 41.8636V48.75H33.7273V41.8636C33.7273 41.7955 33.7955 41.7273 33.8636 41.7273ZM95.1591 87.2727H33.8636C33.7955 87.2727 33.7273 87.2045 33.7273 87.1364V51.4773H95.2273V87.1364C95.2955 87.2045 95.2273 87.2727 95.1591 87.2727Z" fill="white"/>
<path d="M73.0682 46.6362H75.5228C76.2728 46.6362 76.8864 46.0226 76.8864 45.2726C76.8864 44.5226 76.2728 43.9089 75.5228 43.9089H73.0682C72.3182 43.9089 71.7046 44.5226 71.7046 45.2726C71.7046 46.0226 72.3182 46.6362 73.0682 46.6362Z" fill="white"/>
<path d="M81.2504 46.6362H83.7049C84.4549 46.6362 85.0685 46.0226 85.0685 45.2726C85.0685 44.5226 84.4549 43.9089 83.7049 43.9089H81.2504C80.5004 43.9089 79.8867 44.5226 79.8867 45.2726C79.8867 46.0226 80.5004 46.6362 81.2504 46.6362Z" fill="white"/>
<path d="M89.0912 46.6362H91.5457C92.2957 46.6362 92.9094 46.0226 92.9094 45.2726C92.9094 44.5226 92.2957 43.9089 91.5457 43.9089H89.0912C88.3412 43.9089 87.7275 44.5226 87.7275 45.2726C87.7275 46.0226 88.3412 46.6362 89.0912 46.6362Z" fill="white"/>
<path d="M82.8186 67.9772L73.8186 60.8863C73.2049 60.409 72.3867 60.5454 71.9095 61.0908C71.4322 61.7045 71.5686 62.5226 72.114 62.9999L80.1595 69.2726L72.5231 76.0908C71.9776 76.5681 71.9095 77.4545 72.3867 77.9999C72.6595 78.2726 73.0004 78.4772 73.4095 78.4772C73.7504 78.4772 74.0231 78.3408 74.2958 78.1363L82.8867 70.4999C83.2958 70.159 83.5004 69.6817 83.4322 69.2045C83.4322 68.7272 83.2276 68.2499 82.8186 67.9772Z" fill="white"/>
<path d="M55.1366 60.8863L46.4093 67.6363C45.8639 68.0454 45.5911 68.5909 45.5229 69.2727C45.5229 69.8863 45.7957 70.5 46.2729 70.9772L54.5911 78.2727C54.8639 78.4772 55.1366 78.6136 55.4775 78.6136C55.8866 78.6136 56.2275 78.4772 56.5002 78.1363C56.9775 77.5909 56.9093 76.7045 56.3639 76.2272L48.5911 69.409L56.7729 63.1363C57.3866 62.659 57.4548 61.8409 57.0457 61.2272C56.5684 60.5454 55.682 60.409 55.1366 60.8863Z" fill="white"/>
<path d="M67.4094 56.4546C66.6594 56.3183 65.9776 56.7955 65.8412 57.5455L61.2049 81.8183C61.0685 82.5683 61.5458 83.2501 62.2958 83.3864C62.3639 83.3864 62.5003 83.3864 62.5685 83.3864C63.1821 83.3864 63.7958 82.9092 63.9321 82.2955L68.5685 58.0228C68.6367 57.2728 68.1594 56.591 67.4094 56.4546Z" fill="white"/>
</svg>
