<svg width="130" height="128" viewBox="0 0 130 128" fill="none" xmlns="http://www.w3.org/2000/svg">
<ellipse cx="64.855" cy="64" rx="64.855" ry="64" fill="#7628ED"/>
<path d="M57.5384 37.0047C57.0129 36.9853 56.4813 37.024 55.9472 37.1564C54.5228 37.5095 53.4647 38.4288 52.5038 39.3052C51.5429 40.1816 50.6561 41.0444 49.8608 41.4701C49.0656 41.8958 47.8206 42.1763 46.523 42.5088C45.2254 42.8414 43.8354 43.2327 42.7917 44.2008C41.7481 45.1688 41.3292 46.4538 40.9683 47.6596C40.6074 48.8654 40.3033 50.0231 39.8435 50.7615C39.3837 51.4999 38.4526 52.3207 37.5077 53.2119C36.5627 54.1032 35.5723 55.0867 35.189 56.4102C34.8057 57.7338 35.1296 59.0461 35.4654 60.2581C35.8012 61.4701 36.1671 62.6174 36.166 63.4707C36.1648 64.3239 35.7969 65.4631 35.4577 66.6743C35.1187 67.8855 34.7901 69.1978 35.1698 70.5222C35.5496 71.8466 36.5382 72.8305 37.4808 73.724C38.4233 74.6175 39.3512 75.4422 39.809 76.1816C40.2668 76.9211 40.5685 78.0787 40.9261 79.2853C41.2837 80.4919 41.6989 81.7844 42.7399 82.7548C43.7809 83.7253 45.1687 84.1201 46.4654 84.4557C47.7622 84.7913 49.0072 85.0687 49.8013 85.4962C50.5954 85.9238 51.4781 86.7896 52.4367 87.6683C53.3952 88.5469 54.4528 89.4678 55.8762 89.8242C57.2996 90.1807 58.711 89.8795 60.0144 89.5672C61.3178 89.255 62.5459 88.9147 63.4635 88.9158C64.3811 88.9169 65.612 89.259 66.9146 89.5744C68.2172 89.8897 69.6284 90.1952 71.0528 89.8421C72.4771 89.489 73.5372 88.5697 74.4981 87.6932C75.459 86.8168 76.3439 85.954 77.1392 85.5283C77.9344 85.1027 79.1794 84.8275 80.477 84.495C81.7746 84.1624 83.1646 83.771 84.2083 82.803C85.2519 81.835 85.6708 80.5446 86.0317 79.3388C86.3926 78.1331 86.6966 76.9753 87.1564 76.237C87.6162 75.4986 88.5474 74.6778 89.4923 73.7865C90.4373 72.8952 91.4276 71.9118 91.811 70.5882C92.1943 69.2647 91.8704 67.9523 91.5346 66.7403C91.1988 65.5283 90.8328 64.3881 90.834 63.5349C90.8352 62.6817 91.2032 61.5354 91.5423 60.3242C91.8814 59.1129 92.2099 57.8007 91.8301 56.4762C91.4504 55.1518 90.4618 54.1661 89.5192 53.2726C88.5767 52.3791 87.6488 51.5563 87.191 50.8168C86.7332 50.0774 86.4315 48.9198 86.0739 47.7132C85.7163 46.5066 85.3011 45.2194 84.2601 44.249C83.219 43.2785 81.8313 42.8837 80.5346 42.5481C79.2378 42.2125 77.9927 41.9298 77.1987 41.5022C76.4046 41.0747 75.5219 40.2089 74.5633 39.3302C73.6048 38.4515 72.5491 37.5307 71.1257 37.1742C69.7023 36.8178 68.289 37.1243 66.9856 37.4366C65.6822 37.7488 64.4483 38.0837 63.5307 38.0827C62.6131 38.0816 61.388 37.7447 60.0854 37.4294C59.2713 37.2324 58.4142 37.0371 57.5384 37.0047ZM57.1046 38.8394C57.8099 38.818 58.6675 38.9685 59.594 39.1928C60.8295 39.4918 62.1511 39.9086 63.5288 39.9102C64.9065 39.9119 66.2369 39.4996 67.4731 39.2035C68.7094 38.9073 69.8222 38.7408 70.6152 38.9393C71.4081 39.1379 72.2742 39.7997 73.1833 40.6331C74.0924 41.4665 75.0179 42.4416 76.2102 43.0835C77.4025 43.7255 78.7749 43.9896 80.0048 44.3079C81.2347 44.6262 82.2886 44.9987 82.8685 45.5393C83.4485 46.08 83.8422 47.056 84.1814 48.2004C84.5206 49.3448 84.7992 50.6221 85.4866 51.7324C86.1739 52.8427 87.2222 53.7049 88.1161 54.5523C89.0101 55.3997 89.7203 56.2078 89.9319 56.9456C90.1434 57.6835 89.9616 58.7167 89.6401 59.8655C89.3185 61.0143 88.8703 62.2503 88.8685 63.5314C88.8668 64.8124 89.312 66.0495 89.6305 67.199C89.949 68.3486 90.1262 69.3762 89.9127 70.1135C89.6991 70.8508 88.9874 71.6579 88.0912 72.5033C87.1949 73.3486 86.1462 74.2145 85.4558 75.3232C84.7655 76.4318 84.4833 77.708 84.1411 78.8516C83.7988 79.9952 83.4019 80.9698 82.8205 81.5091C82.2391 82.0484 81.1837 82.4145 79.953 82.7299C78.7222 83.0453 77.3504 83.3044 76.1564 83.9435C74.9624 84.5826 74.0332 85.5574 73.1219 86.3886C72.2105 87.2199 71.3415 87.8803 70.548 88.077C69.7545 88.2737 68.6433 88.1046 67.4078 87.8057C66.1724 87.5066 64.8431 87.0898 63.4654 87.0882C62.0877 87.0866 60.7631 87.4988 59.5268 87.795C58.2906 88.0911 57.1797 88.2577 56.3867 88.0591C55.5937 87.8606 54.7258 87.1988 53.8167 86.3654C52.9075 85.532 51.9821 84.5569 50.7898 83.9149C49.5975 83.273 48.225 83.0089 46.9951 82.6906C45.7653 82.3723 44.7114 82.0051 44.1314 81.4645C43.5515 80.9238 43.1578 79.9478 42.8186 78.8034C42.4794 77.659 42.2007 76.3835 41.5134 75.2732C40.826 74.1629 39.7778 73.2936 38.8838 72.4462C37.9899 71.5987 37.2816 70.7907 37.07 70.0528C36.8585 69.315 37.0403 68.2871 37.3617 67.1383C37.6834 65.9895 38.1297 64.7535 38.1314 63.4725C38.1331 62.1914 37.6898 60.9543 37.3713 59.8048C37.0528 58.6553 36.8737 57.6223 37.0873 56.885C37.3008 56.1476 38.0125 55.3405 38.9088 54.4952C39.805 53.6498 40.8556 52.7893 41.546 51.6806C42.2364 50.572 42.5185 49.2958 42.8608 48.1522C43.2031 47.0086 43.598 46.034 44.1794 45.4947C44.7608 44.9554 45.8162 44.584 47.047 44.2686C48.2777 43.9532 49.6514 43.6941 50.8454 43.055C52.0394 42.4158 52.9667 41.4411 53.8781 40.6099C54.7894 39.7786 55.6584 39.1182 56.452 38.9215C56.6503 38.8723 56.8695 38.8465 57.1046 38.8394ZM63.5 45.9605C53.0918 45.9605 44.6324 53.8212 44.6324 63.4992C44.6324 73.1773 53.0918 81.0433 63.5 81.0433C73.9082 81.0433 82.3695 73.1773 82.3695 63.4992C82.3695 53.8212 73.9082 45.9605 63.5 45.9605ZM63.5 47.7828C72.846 47.7828 80.4021 54.8089 80.4021 63.4992C80.4021 72.1896 72.846 79.2157 63.5 79.2157C54.154 79.2157 46.5979 72.1896 46.5979 63.4992C46.5979 54.8089 54.154 47.7828 63.5 47.7828ZM53.5384 56.7458C53.386 56.7393 53.2341 56.7659 53.0947 56.8235C52.9553 56.881 52.8323 56.9679 52.7352 57.0774C52.6382 57.1868 52.5699 57.3157 52.5358 57.4539C52.5016 57.5922 52.5025 57.7359 52.5384 57.8737L55.477 69.5424C55.5269 69.7438 55.6488 69.9235 55.8228 70.0522C55.9967 70.1809 56.2124 70.2509 56.4347 70.2509H70.5653C70.7866 70.2497 71.001 70.1791 71.1737 70.0505C71.3465 69.922 71.4676 69.7429 71.5173 69.5424L74.4616 57.8737C74.5114 57.6834 74.4941 57.4833 74.4123 57.3028C74.3305 57.1223 74.1885 56.971 74.0073 56.8713C73.826 56.7715 73.6151 56.7285 73.4056 56.7487C73.1961 56.7688 72.999 56.851 72.8436 56.9831L66.8512 61.9947L64.3848 57.2669C64.3049 57.1116 64.1795 56.9805 64.0229 56.8886C63.8664 56.7967 63.6851 56.7478 63.5 56.7475C63.3149 56.7478 63.1336 56.7967 62.9771 56.8886C62.8205 56.9805 62.6951 57.1116 62.6152 57.2669L60.1487 61.9947L54.1564 56.9831C53.9866 56.8393 53.7679 56.7553 53.5384 56.7458ZM63.5 59.7548L65.6555 63.883C65.7218 64.01 65.8188 64.121 65.9391 64.2073C66.0593 64.2936 66.1993 64.3528 66.3483 64.3803C66.4973 64.4078 66.651 64.4028 66.7976 64.3658C66.9441 64.3287 67.0794 64.2606 67.1929 64.1667L71.8359 60.2885L69.7822 68.4233H57.2178L55.1641 60.2885L59.8071 64.1667C59.9206 64.2609 60.056 64.3294 60.2028 64.3666C60.3495 64.4039 60.5036 64.409 60.6528 64.3815C60.802 64.354 60.9423 64.2946 61.0627 64.2081C61.1831 64.1216 61.2802 64.0103 61.3464 63.883L63.5 59.7548Z" fill="white" fill-opacity="0.92"/>
</svg>
