<svg width="71" height="71" viewBox="0 0 71 71" fill="none" xmlns="http://www.w3.org/2000/svg">
<circle cx="35.5" cy="35.5" r="35.5" fill="#7628ED"/>
<path fill-rule="evenodd" clip-rule="evenodd" d="M21.6653 22H49.3343C50.0407 22.0017 50.7177 22.2778 51.2172 22.7679C51.7167 23.2581 51.9982 23.9224 52 24.6156V47.3844C51.9982 48.0776 51.7167 48.7419 51.2172 49.2321C50.7177 49.7222 50.0407 49.9983 49.3343 50H21.6653C20.959 49.9982 20.2821 49.7221 19.7827 49.2319C19.2832 48.7418 19.0018 48.0776 19 47.3844V24.6156C19.0018 23.9224 19.2832 23.2582 19.7827 22.7681C20.2821 22.278 20.959 22.0018 21.6653 22ZM26.5185 24.6411C26.4677 24.6411 26.4174 24.6509 26.3705 24.67C26.3235 24.6891 26.2809 24.717 26.245 24.7523C26.209 24.7875 26.1806 24.8294 26.1611 24.8754C26.1417 24.9215 26.1317 24.9709 26.1317 25.0207C26.1317 25.0706 26.1417 25.1199 26.1611 25.166C26.1806 25.212 26.209 25.2539 26.245 25.2891C26.2809 25.3244 26.3235 25.3524 26.3705 25.3714C26.4174 25.3905 26.4677 25.4003 26.5185 25.4003C26.5693 25.4003 26.6196 25.3905 26.6665 25.3714C26.7135 25.3524 26.7561 25.3244 26.792 25.2891C26.828 25.2539 26.8564 25.212 26.8759 25.166C26.8953 25.1199 26.9053 25.0706 26.9053 25.0207C26.9053 24.9709 26.8953 24.9215 26.8759 24.8754C26.8564 24.8294 26.828 24.7875 26.792 24.7523C26.7561 24.717 26.7135 24.6891 26.6665 24.67C26.6196 24.6509 26.5693 24.6411 26.5185 24.6411ZM25.2399 24.6411C25.1891 24.6411 25.1388 24.6509 25.0919 24.67C25.045 24.6891 25.0023 24.717 24.9664 24.7523C24.9305 24.7875 24.902 24.8294 24.8825 24.8754C24.8631 24.9215 24.8531 24.9709 24.8531 25.0207C24.8531 25.0706 24.8631 25.1199 24.8825 25.166C24.902 25.212 24.9305 25.2539 24.9664 25.2891C25.0023 25.3244 25.045 25.3524 25.0919 25.3714C25.1388 25.3905 25.1891 25.4003 25.2399 25.4003C25.3425 25.4003 25.4409 25.3603 25.5135 25.2891C25.586 25.218 25.6268 25.1214 25.6268 25.0207C25.6268 24.92 25.586 24.8235 25.5135 24.7523C25.4409 24.6811 25.3425 24.6411 25.2399 24.6411ZM23.961 24.6411C23.9102 24.6411 23.8599 24.6509 23.813 24.67C23.766 24.6891 23.7234 24.717 23.6875 24.7523C23.6515 24.7875 23.6231 24.8294 23.6036 24.8754C23.5842 24.9215 23.5742 24.9709 23.5742 25.0207C23.5742 25.0706 23.5842 25.1199 23.6036 25.166C23.6231 25.212 23.6515 25.2539 23.6875 25.2891C23.7234 25.3244 23.766 25.3524 23.813 25.3714C23.8599 25.3905 23.9102 25.4003 23.961 25.4003C24.0118 25.4003 24.0621 25.3905 24.109 25.3714C24.156 25.3524 24.1986 25.3244 24.2345 25.2891C24.2705 25.2539 24.2989 25.212 24.3184 25.166C24.3378 25.1199 24.3478 25.0706 24.3478 25.0207C24.3478 24.9709 24.3378 24.9215 24.3184 24.8754C24.2989 24.8294 24.2705 24.7875 24.2345 24.7523C24.1986 24.717 24.156 24.6891 24.109 24.67C24.0621 24.6509 24.0118 24.6411 23.961 24.6411ZM47.039 24.6411H43.2623C43.1597 24.6411 43.0613 24.6811 42.9888 24.7523C42.9163 24.8235 42.8755 24.92 42.8755 25.0207C42.8755 25.1214 42.9163 25.218 42.9888 25.2891C43.0613 25.3603 43.1597 25.4003 43.2623 25.4003H47.039C47.1416 25.4003 47.24 25.3603 47.3125 25.2891C47.3851 25.218 47.4258 25.1214 47.4258 25.0207C47.4258 24.92 47.3851 24.8235 47.3125 24.7523C47.24 24.6811 47.1416 24.6411 47.039 24.6411ZM30.2904 34.7079L26.5552 38.3748C26.5192 38.4101 26.4908 38.4519 26.4713 38.498C26.4519 38.544 26.4419 38.5934 26.4419 38.6433C26.4419 38.6931 26.4519 38.7425 26.4713 38.7885C26.4908 38.8346 26.5192 38.8764 26.5552 38.9117L30.2904 42.5751C30.3263 42.6103 30.3689 42.6382 30.4158 42.6573C30.4627 42.6763 30.513 42.6862 30.5637 42.6862C30.6145 42.6862 30.6648 42.6763 30.7117 42.6573C30.7586 42.6382 30.8012 42.6103 30.8371 42.5751C30.873 42.5398 30.9015 42.498 30.9209 42.452C30.9403 42.406 30.9503 42.3566 30.9503 42.3068C30.9503 42.257 30.9403 42.2077 30.9209 42.1616C30.9015 42.1156 30.873 42.0738 30.8371 42.0386L27.3754 38.6415L30.8371 35.2444C30.9096 35.1732 30.9503 35.0767 30.9503 34.9761C30.9503 34.8755 30.9096 34.779 30.8371 34.7079C30.7646 34.6367 30.6663 34.5968 30.5637 34.5968C30.4612 34.5968 30.3629 34.6367 30.2904 34.7079ZM40.1629 35.2444L43.6246 38.6415L40.1629 42.0386C40.127 42.0738 40.0985 42.1156 40.0791 42.1616C40.0597 42.2077 40.0497 42.257 40.0497 42.3068C40.0497 42.3566 40.0597 42.406 40.0791 42.452C40.0985 42.498 40.127 42.5398 40.1629 42.5751C40.1988 42.6103 40.2414 42.6382 40.2883 42.6573C40.3352 42.6763 40.3855 42.6862 40.4363 42.6862C40.487 42.6862 40.5373 42.6763 40.5842 42.6573C40.6311 42.6382 40.6737 42.6103 40.7096 42.5751L44.4467 38.9099C44.519 38.8386 44.5597 38.7421 44.5597 38.6415C44.5597 38.5408 44.519 38.4443 44.4467 38.373L40.7096 34.7079C40.6737 34.6726 40.6311 34.6447 40.5842 34.6256C40.5373 34.6066 40.487 34.5968 40.4363 34.5968C40.3855 34.5968 40.3352 34.6066 40.2883 34.6256C40.2414 34.6447 40.1988 34.6726 40.1629 34.7079C40.127 34.7431 40.0985 34.7849 40.0791 34.8309C40.0597 34.877 40.0497 34.9263 40.0497 34.9761C40.0497 35.0259 40.0597 35.0753 40.0791 35.1213C40.0985 35.1673 40.127 35.2091 40.1629 35.2444ZM36.4625 33.6518L33.7913 43.4354C33.7649 43.5325 33.7788 43.6359 33.8301 43.7229C33.8813 43.81 33.9657 43.8734 34.0647 43.8994C34.1636 43.9253 34.269 43.9117 34.3577 43.8614C34.4464 43.811 34.511 43.7282 34.5375 43.6311L37.2087 33.8475C37.2218 33.7995 37.2251 33.7493 37.2184 33.7C37.2118 33.6506 37.1953 33.6031 37.1699 33.56C37.1445 33.5169 37.1108 33.4791 37.0705 33.4489C37.0302 33.4186 36.9843 33.3964 36.9353 33.3835C36.8364 33.3576 36.731 33.3713 36.6423 33.4216C36.5536 33.4719 36.489 33.5547 36.4625 33.6518ZM19.7733 27.2829H51.2263V24.6156C51.2248 24.1236 51.025 23.6522 50.6705 23.3044C50.316 22.9565 49.8356 22.7604 49.3343 22.7589H21.6653C21.164 22.7606 20.6838 22.9567 20.3294 23.3046C19.9749 23.6524 19.775 24.1237 19.7733 24.6156V27.2829ZM51.2263 28.0418H19.7733V47.3844C19.7751 47.8763 19.9751 48.3475 20.3295 48.6953C20.6839 49.0431 21.1641 49.2393 21.6653 49.2411H49.3343C49.8356 49.2394 50.3158 49.0433 50.6703 48.6954C51.0247 48.3476 51.2246 47.8763 51.2263 47.3844V28.0418Z" fill="white"/>
</svg>
