<svg width="208" height="208" viewBox="0 0 208 208" fill="none" xmlns="http://www.w3.org/2000/svg">
<path d="M118.723 0H89.0425C39.8657 0 0 39.9032 0 89.1262V118.835C0 168.058 39.8657 207.961 89.0425 207.961H118.723C167.9 207.961 207.766 168.058 207.766 118.835V89.1262C207.766 39.9032 167.9 0 118.723 0Z" fill="white" fill-opacity="0.92"/>
<path fill-rule="evenodd" clip-rule="evenodd" d="M130.445 89.1261C130.314 88.8358 130.104 88.5891 129.837 88.4153C129.571 88.2415 129.261 88.1481 128.943 88.1458H109.288L128.684 56.1197C128.844 55.8569 128.932 55.5575 128.941 55.2504C128.951 54.9433 128.881 54.639 128.738 54.367C128.601 54.0985 128.393 53.873 128.137 53.7157C127.88 53.5583 127.585 53.4752 127.284 53.4756H100.746C100.434 53.4757 100.128 53.5653 99.865 53.7338C99.602 53.9023 99.3927 54.1424 99.2618 54.4261L74.3834 106.416C74.2562 106.683 74.1962 106.977 74.2086 107.272C74.221 107.567 74.3054 107.855 74.4546 108.11C74.6003 108.355 74.8072 108.558 75.0549 108.698C75.3026 108.839 75.5826 108.913 75.8674 108.912H92.922L74.3359 155.05C74.1857 155.428 74.1696 155.848 74.2906 156.237C74.4116 156.626 74.6623 156.962 75.0007 157.189C75.2558 157.362 75.5564 157.455 75.8644 157.456C76.1098 157.457 76.352 157.401 76.5723 157.293C76.7926 157.184 76.985 157.027 77.1348 156.832L130.21 90.9977C130.415 90.7365 130.545 90.4241 130.587 90.0944C130.628 89.7646 130.579 89.43 130.445 89.1261Z" fill="#7D54F0"/>
</svg>
