<svg width="208" height="208" viewBox="0 0 208 208" fill="none" xmlns="http://www.w3.org/2000/svg">
<path d="M118.723 0H89.0425C39.8657 0 0 39.9032 0 89.1262V118.835C0 168.058 39.8657 207.961 89.0425 207.961H118.723C167.9 207.961 207.766 168.058 207.766 118.835V89.1262C207.766 39.9032 167.9 0 118.723 0Z" fill="white"/>
<path d="M67.1923 71.3357C73.084 71.3357 77.8602 66.5596 77.8602 60.6679C77.8602 54.7762 73.084 50 67.1923 50C61.3006 50 56.5244 54.7762 56.5244 60.6679C56.5244 66.5596 61.3006 71.3357 67.1923 71.3357Z" fill="#7D54F0"/>
<path d="M55.2899 108.716H56.3478V129.876C56.3478 132.786 58.7283 135.165 61.6377 135.165H72.7464C75.6558 135.165 78.0362 132.786 78.0362 129.876V128.642C77.0664 126.79 76.4493 124.675 76.4493 122.471V94.787C76.4493 89.409 79.7113 84.7363 84.384 82.7085V80.5926C84.384 77.6832 82.0036 75.3027 79.0942 75.3027H55.2899C52.3804 75.3027 50 77.6832 50 80.5926V103.427C50 106.337 52.2923 108.716 55.2899 108.716Z" fill="#7D54F0"/>
<path d="M141.074 71.3357C146.965 71.3357 151.742 66.5596 151.742 60.6679C151.742 54.7762 146.965 50 141.074 50C135.182 50 130.406 54.7762 130.406 60.6679C130.406 66.5596 135.182 71.3357 141.074 71.3357Z" fill="#7D54F0"/>
<path d="M123.793 80.5047V82.6206C128.467 84.6484 131.728 89.3211 131.728 94.6991V122.295C131.728 124.499 131.199 126.615 130.142 128.466V129.7C130.142 132.61 132.521 134.99 135.432 134.99H146.54C149.45 134.99 151.83 132.61 151.83 129.7V108.541H152.887C155.797 108.541 158.177 106.16 158.177 103.251V80.5047C158.177 77.5953 155.797 75.2148 152.887 75.2148H129.083C126.174 75.2148 123.793 77.5944 123.793 80.5047Z" fill="#7D54F0"/>
<path d="M84.4722 94.786V103.426V122.47C84.4722 125.379 86.8526 127.759 89.762 127.759H91.7898V152.71C91.7898 155.619 94.1702 158 97.0797 158H111.274C114.184 158 116.564 155.619 116.564 152.71V127.671H118.592C121.501 127.671 123.882 125.292 123.882 122.381V103.427V94.7869C123.882 91.8775 121.501 89.4971 118.592 89.4971H89.762C86.7644 89.4962 84.4722 91.8775 84.4722 94.786Z" fill="#7D54F0"/>
<path d="M104.133 85.0888C110.901 85.0888 116.388 79.6021 116.388 72.8339C116.388 66.0658 110.901 60.5791 104.133 60.5791C97.3651 60.5791 91.8784 66.0658 91.8784 72.8339C91.8784 79.6021 97.3651 85.0888 104.133 85.0888Z" fill="#7D54F0"/>
</svg>
