<svg width="208" height="208" viewBox="0 0 208 208" fill="none" xmlns="http://www.w3.org/2000/svg">
<path d="M118.723 0H89.0425C39.8657 0 0 39.9032 0 89.1262V118.835C0 168.058 39.8657 207.961 89.0425 207.961H118.723C167.9 207.961 207.766 168.058 207.766 118.835V89.1262C207.766 39.9032 167.9 0 118.723 0Z" fill="white"/>
<path d="M109.43 72.5685C112.757 70.6767 115 67.1004 115 63C115 56.9249 110.075 52 104 52C97.9247 52 93 56.9249 93 63C93 67.1096 95.2533 70.6928 98.5924 72.5813L98.5429 72.6819C94.9366 80.1981 89.9328 90.9661 82.2015 95.0086C75.8585 98.3254 66.7445 96.6567 59.9799 95.4192C59.6818 91.1339 56.1111 87.75 51.75 87.75C47.1936 87.75 43.5 91.4436 43.5 96C43.5 100.041 46.4048 103.403 50.2401 104.112L66.4495 145.96C68.9103 152.313 75.0227 156.5 81.8356 156.5H126.164C132.977 156.5 139.089 152.313 141.551 145.96L157.76 104.112C161.595 103.403 164.5 100.041 164.5 96C164.5 91.4436 160.806 87.75 156.25 87.75C151.973 87.75 148.455 91.0052 148.041 95.1735C141.116 96.0715 132.188 97.2171 125.799 93.8763C118.222 89.915 113.149 79.8892 109.43 72.5685Z" fill="#7D54F0"/>
</svg>
