<svg width="130" height="128" viewBox="0 0 130 128" fill="none" xmlns="http://www.w3.org/2000/svg">
<ellipse cx="64.855" cy="64" rx="64.855" ry="64" fill="#7628ED"/>
<path d="M66 54C71.5 54 76 49.5 76 44C76 38.5 71.5 34 66 34C60.5 34 56 38.5 56 44C56 49.5 60.5 54 66 54ZM66 36C70.4 36 74 39.6 74 44C74 48.4 70.4 52 66 52C61.6 52 58 48.4 58 44C58 39.6 61.6 36 66 36Z" fill="white"/>
<path d="M91 57.3999C93.8 57.3999 96 55.1999 96 52.3999C96 49.5999 93.8 47.3999 91 47.3999C88.2 47.3999 86 49.5999 86 52.3999C86 55.1999 88.2 57.3999 91 57.3999ZM91 49.3999C92.7 49.3999 94 50.6999 94 52.3999C94 54.0999 92.7 55.3999 91 55.3999C89.3 55.3999 88 54.0999 88 52.3999C88 50.6999 89.3 49.3999 91 49.3999Z" fill="white"/>
<path d="M41 57.3999C43.8 57.3999 46 55.1999 46 52.3999C46 49.5999 43.8 47.3999 41 47.3999C38.2 47.3999 36 49.5999 36 52.3999C36 55.1999 38.2 57.3999 41 57.3999ZM41 49.3999C42.7 49.3999 44 50.6999 44 52.3999C44 54.0999 42.7 55.3999 41 55.3999C39.3 55.3999 38 54.0999 38 52.3999C38 50.6999 39.3 49.3999 41 49.3999Z" fill="white"/>
<path d="M92.8 58.7998H89.2C86.9 58.7998 85 60.6998 85 62.9998V69.7998H84.3L83 59.6998C82.9 59.1998 82.5 58.7998 82 58.7998H50C49.5 58.7998 49.1 59.1998 49 59.6998L47.6 69.7998H47V63.6998C47 60.9998 44.8 58.7998 42.1 58.7998H39.9C37.2 58.7998 35 60.9998 35 63.6998V79.7998C35 80.3998 35.4 80.7998 36 80.7998H46C46.1 80.7998 46.1 80.7998 46.2 80.7998L45 89.6998C45 89.9998 45 90.2998 45.2 90.4998C45.4 90.6998 45.7 90.7998 46 90.7998H86C86.3 90.7998 86.6 90.6998 86.8 90.4998C87 90.2998 87.1 89.9998 87 89.6998L85.8 80.7998C85.9 80.7998 85.9 80.7998 86 80.7998H96C96.6 80.7998 97 80.3998 97 79.7998V62.9998C97 60.6998 95.1 58.7998 92.8 58.7998ZM37 78.7998V63.6998C37 62.0998 38.3 60.7998 39.9 60.7998H42C43.6 60.7998 44.9 62.0998 44.9 63.6998V70.7998C44.9 71.3998 45.3 71.7998 45.9 71.7998H48.4H57C58.1 71.7998 59 72.6998 59 73.7998C59 74.2998 58.8 74.7998 58.4 75.1998C58 75.5998 57.5 75.7998 57 75.7998H47.7H41C40.4 75.7998 40 76.1998 40 76.7998C40 77.3998 40.4 77.7998 41 77.7998H45V78.7998H37ZM47.1 88.7998L48.6 77.7998H57C58.1 77.7998 59.1 77.3998 59.8 76.5998C60.6 75.7998 61 74.7998 61 73.7998C61 71.5998 59.2 69.7998 57 69.7998H49.7L50.9 60.7998H81.2L82.4 69.7998H75C73.9 69.7998 72.9 70.1998 72.2 70.9998C71.4 71.7998 71 72.7998 71 73.7998C71 75.9998 72.8 77.7998 75 77.7998H83.4L84.9 88.7998H47.1ZM95 78.7998H87V77.7998H91C91.6 77.7998 92 77.3998 92 76.7998C92 76.1998 91.6 75.7998 91 75.7998H84.3H75C73.9 75.7998 73 74.8998 73 73.7998C73 73.2998 73.2 72.7998 73.6 72.3998C74 71.9998 74.5 71.7998 75 71.7998H83.5H86C86.6 71.7998 87 71.3998 87 70.7998V62.9998C87 61.7998 88 60.7998 89.2 60.7998H92.8C94 60.7998 95 61.7998 95 62.9998V78.7998Z" fill="white"/>
<path d="M62.2 47.0998C62.3 47.0998 62.4 47.0998 62.5 46.9998L66.3 45.5998C66.7 45.4998 67 45.0998 67 44.6998V39.7998C67 39.1998 66.6 38.7998 66 38.7998C65.4 38.7998 65 39.1998 65 39.7998V43.9998L61.9 45.0998C61.4 45.2998 61.1 45.8998 61.3 46.3998C61.4 46.8998 61.8 47.0998 62.2 47.0998Z" fill="white"/>
</svg>
