<svg width="130" height="128" viewBox="0 0 130 128" fill="none" xmlns="http://www.w3.org/2000/svg">
<ellipse cx="64.855" cy="64" rx="64.855" ry="64" fill="#7628ED"/>
<path d="M73.1208 84.7031H55.8787C55.2156 84.7031 54.6851 85.2464 54.6851 85.9255V88.7776C54.6851 89.4566 55.2156 89.9999 55.8787 89.9999H73.1208C73.784 89.9999 74.3145 89.4566 74.3145 88.7776V85.9255C74.3145 85.2464 73.784 84.7031 73.1208 84.7031Z" fill="white"/>
<path d="M67.219 50.8174C66.8875 50.2062 66.3569 49.7309 65.7601 49.4592V64.0593C67.219 64.6025 68.2138 66.0286 68.2138 67.6583C68.2138 69.7635 66.5559 71.4611 64.5001 71.4611C62.4443 71.4611 60.7864 69.7635 60.7864 67.6583C60.7864 66.0286 61.8475 64.6025 63.2401 64.0593V49.5271C62.6432 49.7988 62.179 50.2741 61.7811 50.8174L52.8948 66.7076C52.298 67.7262 52.099 68.9486 52.3643 70.103L54.4864 80.9002C54.619 81.4435 55.0833 81.9188 55.6801 81.9188H73.3864C73.9833 81.9188 74.4475 81.5114 74.5801 80.9002L76.7022 70.103C76.9675 68.9486 76.7685 67.7262 76.1717 66.7076L67.219 50.8174Z" fill="white"/>
<path d="M92.7505 43.755C94.5411 43.755 96 42.261 96 40.4275C96 38.5941 94.5411 37.1001 92.7505 37.1001C91.3579 37.1001 90.1642 38.0508 89.7 39.341H67.9484C67.8821 39.341 67.7495 39.341 67.6832 39.341V37.168H61.2505V39.341C61.1842 39.341 61.0516 39.341 60.9853 39.341H39.3C38.8358 38.0508 37.6421 37.1001 36.2495 37.1001C34.4589 37.1001 33 38.5941 33 40.4275C33 42.261 34.4589 43.755 36.2495 43.755C37.6421 43.755 38.8358 42.8043 39.3 41.5141H53.0274C43.3453 45.7243 36.3158 55.0276 35.1221 66.1644H33V72.7513H39.4326V66.1644H37.6421C39.1011 53.5336 48.9158 43.4834 61.2505 41.9894V43.8229H67.6832V41.9894C80.0179 43.4834 89.8326 53.5336 91.2916 66.1644H89.501V72.7513H95.9337V66.1644H93.8116C92.6179 55.0276 85.5884 45.7243 75.9063 41.5141H89.7C90.1642 42.8722 91.3579 43.755 92.7505 43.755Z" fill="white"/>
</svg>
