<svg width="130" height="128" viewBox="0 0 130 128" fill="none" xmlns="http://www.w3.org/2000/svg">
<ellipse cx="64.855" cy="64" rx="64.855" ry="64" fill="#7628ED"/>
<path d="M55.3693 94H88.4418C89.1683 93.9983 89.8646 93.7084 90.3783 93.1939C90.8921 92.6794 91.1814 91.982 91.1832 91.2543V73.2932C91.7239 73.0736 92.1863 72.6962 92.5103 72.2101C92.8342 71.7239 93.0048 71.1515 92.9999 70.5671V63.6735C92.9982 63.0623 92.7546 62.4768 92.3225 62.0452C91.8903 61.6136 91.305 61.3713 90.6948 61.3713H64.2837C66.1265 58.3778 67.9758 54.993 68.3599 50.8125C68.417 50.2774 68.4452 49.7397 68.4446 49.2016C68.301 45.1213 66.5816 41.2561 63.6488 38.4205C60.716 35.5848 56.7987 34 52.7223 34C48.6459 34 44.7286 35.5848 41.7958 38.4205C38.863 41.2561 37.1436 45.1213 37 49.2016C37 49.732 37.026 50.2668 37.0781 50.8059C37.5209 55.5864 39.8651 59.2843 41.9358 62.6105C43.5637 65.2192 44.9767 67.4757 45.1916 69.7519C44.5555 69.9039 43.9889 70.2656 43.5826 70.7789C43.1764 71.2922 42.9542 71.9273 42.9516 72.5823V73.091C42.9553 73.529 43.0566 73.9607 43.2481 74.3545C43.4396 74.7483 43.7165 75.0942 44.0586 75.3671C43.7155 75.6391 43.4378 75.9849 43.2462 76.3789C43.0545 76.7729 42.9539 77.205 42.9516 77.6433V78.152C42.9585 78.9247 43.2693 79.6635 43.8167 80.2081C44.3641 80.7526 45.1038 81.059 45.8753 81.0607H46.2595V82.3651C46.2663 83.3633 46.6648 84.3189 47.369 85.0254C48.0732 85.7319 49.0265 86.1327 50.0232 86.1412H52.6279V91.2543C52.6296 91.982 52.919 92.6794 53.4327 93.1939C53.9464 93.7084 54.6427 93.9983 55.3693 94ZM89.8808 91.2543C89.8808 91.4436 89.8436 91.631 89.7713 91.8059C89.699 91.9808 89.593 92.1396 89.4593 92.2735C89.3257 92.4073 89.1671 92.5135 88.9925 92.5859C88.8179 92.6584 88.6307 92.6956 88.4418 92.6956H55.3693C55.1803 92.6956 54.9932 92.6584 54.8186 92.5859C54.644 92.5135 54.4853 92.4073 54.3517 92.2735C54.2181 92.1396 54.1121 91.9808 54.0397 91.8059C53.9674 91.631 53.9302 91.4436 53.9302 91.2543V86.1412H55.4669C56.4682 86.1395 57.4282 85.7417 58.1379 85.0345C58.8477 84.3273 59.2498 83.3678 59.2567 82.3651V81.0607H59.6409C60.4152 81.059 61.1572 80.7497 61.7041 80.2007C62.251 79.6517 62.5581 78.9079 62.5581 78.1324V77.6237C62.5584 77.1041 62.4165 76.5943 62.1479 76.1498L67.8325 77.852V80.7998C67.8318 80.9124 67.8603 81.0232 67.9151 81.1215C67.9698 81.2198 68.0491 81.3022 68.1451 81.3607L71.5571 83.4086C71.6561 83.4658 71.7684 83.4959 71.8827 83.4959C71.997 83.4959 72.1093 83.4658 72.2083 83.4086L75.6204 81.3607C75.7164 81.3022 75.7956 81.2198 75.8504 81.1215C75.9052 81.0232 75.9336 80.9124 75.933 80.7998V77.8715L89.8353 73.7041L89.8808 91.2543ZM69.1348 80.4085V74.6171H74.6502V80.4085L71.8892 82.0651L69.1348 80.4085ZM90.7078 62.6757C90.9704 62.6791 91.2211 62.7855 91.4062 62.9721C91.5913 63.1587 91.6959 63.4105 91.6976 63.6735V70.5671C91.699 70.921 91.5854 71.2657 91.374 71.5493C91.1625 71.8328 90.8647 72.0397 90.5255 72.1388L75.9525 76.4954V73.9519C75.9525 73.7789 75.8839 73.613 75.7618 73.4907C75.6396 73.3684 75.474 73.2997 75.3013 73.2997H68.4837C68.311 73.2997 68.1453 73.3684 68.0232 73.4907C67.9011 73.613 67.8325 73.7789 67.8325 73.9519V76.4954L62.0241 74.7606C62.3723 74.2689 62.5589 73.6808 62.5581 73.078V72.5823C62.5584 71.9148 62.3305 71.2674 61.9123 70.7477C61.4941 70.2279 60.9108 69.8673 60.2595 69.7258C60.4744 67.4823 61.8614 65.2322 63.4697 62.6757H90.7078ZM43.0232 61.9126C41.0307 58.743 38.7777 55.156 38.3609 50.682C38.3023 50.1799 38.3023 49.6842 38.3023 49.2016C38.2922 47.2347 38.6831 45.2865 39.4509 43.4762C40.2188 41.6659 41.3475 40.0316 42.7679 38.6735C44.1884 37.3153 45.8707 36.2618 47.7118 35.5776C49.553 34.8933 51.5142 34.5926 53.4754 34.694C55.4366 34.7953 57.3565 35.2966 59.1175 36.167C60.8786 37.0374 62.4437 38.2587 63.7171 39.756C64.9904 41.2534 65.9452 42.9953 66.523 44.8752C67.1007 46.755 67.2893 48.7332 67.0772 50.6886C66.6669 55.156 64.4139 58.743 62.4213 61.9126C60.7609 64.5213 59.1655 67.0518 58.9572 69.654H55.5255V57.2039H58.3711C59.192 57.2051 59.9948 56.9628 60.6782 56.5076C61.3617 56.0523 61.8952 55.4044 62.2114 54.6457C62.5276 53.8871 62.6123 53.0516 62.4548 52.2447C62.2973 51.4379 61.9048 50.6958 61.3266 50.1122C60.7485 49.5287 60.0107 49.1297 59.2064 48.9657C58.402 48.8016 57.5672 48.8799 56.8073 49.1907C56.0474 49.5014 55.3964 50.0307 54.9365 50.7116C54.4766 51.3926 54.2284 52.1947 54.2232 53.0168V55.8799H51.3256V53.0168C51.323 52.1957 51.0775 51.3938 50.6202 50.7123C50.1628 50.0309 49.5141 49.5004 48.756 49.188C47.9978 48.8756 47.1642 48.7951 46.3605 48.9569C45.5567 49.1187 44.8189 49.5154 44.2401 50.0969C43.6613 50.6784 43.2675 51.4187 43.1085 52.2242C42.9495 53.0297 43.0324 53.8644 43.3468 54.6227C43.6611 55.3811 44.1927 56.0291 44.8746 56.485C45.5564 56.941 46.3578 57.1843 47.1777 57.1843H50.0232V69.654H46.4874C46.253 67.0518 44.6772 64.5474 43.0232 61.9126ZM55.5255 55.8995V53.0168C55.5281 52.4537 55.6972 51.904 56.0114 51.437C56.3257 50.9701 56.771 50.6068 57.2912 50.3931C57.8113 50.1794 58.3831 50.1248 58.9342 50.2362C59.4853 50.3477 59.9911 50.6201 60.3878 51.0192C60.7845 51.4183 61.0542 51.9262 61.1629 52.4787C61.2717 53.0312 61.2146 53.6035 60.9988 54.1235C60.7831 54.6436 60.4183 55.0879 59.9507 55.4005C59.483 55.7131 58.9334 55.8799 58.3711 55.8799L55.5255 55.8995ZM54.2232 57.2039V69.654H51.3256V57.2039H54.2558H54.2232ZM50.0232 53.0168V55.8799H47.1451C46.5824 55.8748 46.0338 55.703 45.5684 55.3863C45.103 55.0696 44.7414 54.6221 44.5294 54.1001C44.3173 53.5781 44.2641 53.0049 44.3766 52.4527C44.489 51.9004 44.7621 51.3939 45.1613 50.9967C45.5605 50.5996 46.0682 50.3296 46.6203 50.2207C47.1724 50.1119 47.7443 50.169 48.264 50.385C48.7838 50.6009 49.2281 50.966 49.5412 51.4343C49.8542 51.9027 50.0219 52.4533 50.0232 53.0168ZM44.2539 72.5823C44.2539 72.1516 44.4248 71.7386 44.7288 71.434C45.0329 71.1295 45.4453 70.9584 45.8753 70.9584H59.6409C59.8535 70.9584 60.064 71.0004 60.2604 71.0821C60.4567 71.1638 60.635 71.2835 60.7851 71.4344C60.9351 71.5853 61.0539 71.7644 61.1347 71.9614C61.2155 72.1583 61.2566 72.3694 61.2558 72.5823V73.091C61.2558 73.5206 61.0858 73.9327 60.7832 74.237C60.4805 74.5414 60.0698 74.7132 59.6409 74.715H45.8753C45.4458 74.7132 45.0344 74.5416 44.7307 74.2374C44.427 73.9332 44.2557 73.5212 44.2539 73.091V72.5823ZM46.9107 79.7563H45.8753C45.4458 79.7546 45.0344 79.583 44.7307 79.2788C44.427 78.9746 44.2557 78.5626 44.2539 78.1324V77.6237C44.2539 77.193 44.4248 76.78 44.7288 76.4754C45.0329 76.1709 45.4453 75.9998 45.8753 75.9998H59.6409C59.8535 75.9998 60.064 76.0418 60.2604 76.1235C60.4567 76.2052 60.635 76.3249 60.7851 76.4758C60.9351 76.6267 61.0539 76.8057 61.1347 77.0027C61.2155 77.1997 61.2566 77.4108 61.2558 77.6237V78.1324C61.2558 78.562 61.0858 78.974 60.7832 79.2784C60.4805 79.5828 60.0698 79.7546 59.6409 79.7563H46.9107ZM50.0232 84.8368C49.3719 84.8284 48.7498 84.565 48.2898 84.1031C47.8299 83.6412 47.5686 83.0174 47.5618 82.3651V81.0607H57.9804V82.3651C57.9804 83.0264 57.7186 83.6608 57.2523 84.129C56.786 84.5973 56.1533 84.8612 55.493 84.8629L50.0232 84.8368Z" fill="white"/>
</svg>
