<svg width="130" height="128" viewBox="0 0 130 128" fill="none" xmlns="http://www.w3.org/2000/svg">
<ellipse cx="64.855" cy="64" rx="64.855" ry="64" fill="#7628ED"/>
<path d="M56.7697 58.2979L63.6681 55.4446V42.0236C63.6681 41.8377 63.4821 41.6518 63.2125 41.6518H52.4467V50.8439C52.4467 51.2157 52.2607 51.4852 51.8981 51.5781L44.9998 54.4315V57.9262C44.9998 58.205 45.1857 58.3816 45.4553 58.3816H56.5001C56.5838 58.3909 56.6768 58.2979 56.7697 58.2979ZM65.3229 55.4446L72.2213 58.2979C72.5002 58.3909 72.6768 58.6697 72.6768 59.0322V68.0384H83.5264C84.6327 68.0384 85.5531 68.9585 85.5531 70.0645V73.5592L92.4515 76.4126C92.7304 76.5055 93 76.868 93 77.1468V87.1661C93 87.4449 92.8141 87.7145 92.4515 87.9003L85.0976 90.9303C84.9116 91.0232 84.642 91.0232 84.3631 90.9303L77.3718 88.0769H65.6948C64.5885 88.0769 63.6681 87.0639 63.6681 85.9671V72.6391L56.7697 69.7857C56.3979 69.5998 56.2212 69.3303 56.2212 68.9585V60.0453H45.4646C44.3583 60.0453 43.3542 59.1251 43.3542 57.9355V54.4408L36.4559 51.5874C36.177 51.4945 36.0003 51.2157 36.0003 50.8532V40.9269C36.0003 40.5551 36.1863 40.2855 36.4559 40.1926L43.9028 37.0697C44.0887 36.9768 44.3583 36.9768 44.5442 37.0697L51.5356 40.0067H63.2125C64.3189 40.0067 65.3229 40.9268 65.3229 42.0329V55.4446ZM50.7918 42.1165L44.9998 44.5052V52.6842L50.7918 50.2955V42.1165ZM43.3449 44.5052L37.5529 42.1165V50.2955L43.3449 52.6842V44.5052ZM49.5088 40.9269L44.1724 38.7148L38.9289 40.9176L44.1724 43.0274L49.5088 40.9269ZM36.4559 76.4033L43.9028 73.3733C44.0887 73.2804 44.3583 73.2804 44.5442 73.3733L51.8981 76.4033C52.27 76.4962 52.4467 76.8587 52.4467 77.1375V87.1568C52.4467 87.4356 52.2607 87.7052 51.8981 87.891L44.5442 90.921C44.3583 91.0139 44.0887 91.0139 43.8098 90.921L36.4559 87.891C36.177 87.7052 36.0003 87.4356 36.0003 87.1568V77.1375C35.991 76.868 36.177 76.4962 36.4559 76.4033ZM50.7918 78.3365L44.9998 80.7251V88.9971L50.7918 86.6084V78.3365ZM43.3449 80.7251L37.5529 78.3365V86.6084L43.3449 88.9971V80.7251ZM49.5088 77.1375L44.1724 74.9348L38.9289 77.1375L44.1724 79.3403L49.5088 77.1375ZM76.9999 40.1926L84.4468 37.0697C84.6327 36.9768 84.8187 36.9768 85.0883 37.0697L92.4422 40.1926C92.7211 40.2855 92.9907 40.5644 92.9907 40.9269V50.8532C92.9907 51.225 92.8048 51.4945 92.4422 51.5874L85.0883 54.6174C84.9023 54.8033 84.6327 54.8033 84.3538 54.6174L76.9999 51.5874C76.721 51.4945 76.4514 51.2157 76.4514 50.8532V40.9269C76.4514 40.5551 76.721 40.2762 76.9999 40.1926ZM91.3451 42.1165L85.5531 44.5052V52.6842L91.3451 50.2955V42.1165ZM83.8983 44.5052L78.1063 42.1165V50.2955L83.8983 52.6842V44.5052ZM90.0529 40.9269L84.7257 38.7148L79.3892 40.9176L84.7257 43.0274L90.0529 40.9269ZM83.8983 73.5592V70.0645C83.8983 69.8787 83.7123 69.6091 83.5264 69.6091H72.4072C72.3143 69.7021 72.3143 69.7021 72.2213 69.795L65.3229 72.6484V85.9764C65.3229 86.2552 65.5089 86.4318 65.6948 86.4318H76.4514V77.1468C76.4514 76.868 76.7303 76.5055 76.9999 76.4126L83.8983 73.5592ZM91.3451 78.3365L85.5531 80.7251V88.9971L91.3451 86.6084V78.3365ZM83.8983 80.7251L78.1063 78.3365V86.6084L83.8983 88.9971V80.7251ZM90.0529 77.1375L84.7164 74.9348L79.3799 77.1375L84.7164 79.3403L90.0529 77.1375ZM68.6327 45.2394V46.8009H67.0708V45.2394H68.6327ZM83.8983 61.7926H85.4602V63.354H83.8983V61.7926ZM76.1725 64.5437V66.1052H74.6106V64.5437H76.1725ZM85.4602 64.5437V66.1052H83.8983V64.5437H85.4602ZM82.4201 64.5437V66.1052H80.8582V64.5437H82.4201ZM79.2963 64.5437V66.1052H77.7344V64.5437H79.2963ZM83.8983 55.5375H85.4602V57.099H83.8983V55.5375ZM83.8983 58.6604H85.4602V60.2219H83.8983V58.6604ZM74.8895 45.2394V46.8009H73.3276V45.2394H74.8895ZM71.7564 45.2394V46.8009H70.1946V45.2394H71.7564ZM60.2654 82.7513V81.1898H61.8273V82.7513H60.2654ZM44.9998 66.291H43.4379V64.7296H44.9998V66.291ZM52.8185 63.447V61.9785H54.2875V63.447H52.8185ZM43.4379 63.447V61.9785H44.9998V63.447H43.4379ZM46.571 63.447V61.9785H48.1329V63.447H46.571ZM49.6948 63.447V61.9785H51.2566V63.447H49.6948ZM44.9998 72.4532H43.4379V70.9847H44.9998V72.4532ZM44.9998 69.4139H43.4379V67.8525H44.9998V69.4139ZM54.0178 82.7513V81.1898H55.5797V82.7513H54.0178ZM57.1416 82.7513V81.1898H58.7035V82.7513H57.1416ZM71.115 60.2312L65.3229 62.6198V70.8917L71.115 68.5031V60.2312ZM63.6681 62.6198L57.8761 60.2312V68.5031L63.6681 70.8917V62.6198ZM69.739 59.0322L64.4955 56.8294L59.1591 59.0322L64.4955 61.2349L69.739 59.0322Z" fill="white"/>
</svg>
