<svg width="208" height="208" viewBox="0 0 208 208" fill="none" xmlns="http://www.w3.org/2000/svg">
<path d="M118.723 0H89.0425C39.8657 0 0 39.9032 0 89.1262V118.835C0 168.058 39.8657 207.961 89.0425 207.961H118.723C167.9 207.961 207.766 168.058 207.766 118.835V89.1262C207.766 39.9032 167.9 0 118.723 0Z" fill="white"/>
<path d="M152 106C152 121.6 139.6 134 124 134C117.6 134 111.6 132 106.8 128.4C112.4 122.8 116 114.8 116 106C116 97.2 112.4 89.6 106.8 83.6C111.6 80 117.6 78 124 78C139.6 78 152 90.4 152 106ZM104 86.4C99.2 91.6 96 98.4 96 106C96 113.6 99.2 120.4 104 125.6C108.8 120.4 112 113.6 112 106C112 98.4 108.8 91.6 104 86.4ZM92 106C92 97.2 95.6 89.6 101.2 83.6C96.4 80 90.4 78 84 78C68.4 78 56 90.4 56 106C56 121.6 68.4 134 84 134C90.4 134 96.4 132 101.2 128.4C95.6 122.4 92 114.8 92 106Z" fill="#7D54F0"/>
</svg>
